<svg width="120" height="120" viewBox="0 0 120 120" fill="none" xmlns="http://www.w3.org/2000/svg">
<g clip-path="url(#clip0_11059_30874)">
<path d="M60 119.598C92.9149 119.598 119.598 92.9149 119.598 60C119.598 27.0851 92.9149 0.402344 60 0.402344C27.0851 0.402344 0.402344 27.0851 0.402344 60C0.402344 92.9149 27.0851 119.598 60 119.598Z" fill="#E8E9EB"/>
<path d="M13.4122 24.8907H106.589C107.463 24.8907 108.301 25.238 108.92 25.8562C109.538 26.4744 109.885 27.3128 109.885 28.1871V90.3542H10.1016V28.1871C10.1016 27.753 10.1873 27.3232 10.3538 26.9224C10.5204 26.5215 10.7645 26.1575 11.0721 25.8512C11.3797 25.5449 11.7447 25.3024 12.1463 25.1375C12.5479 24.9727 12.9781 24.8888 13.4122 24.8907Z" fill="#43474A"/>
<path d="M105 29.582H15V85.6926H105V29.582Z" fill="white"/>
<path d="M0 90.3516H120C120 91.604 119.502 92.8052 118.617 93.6908C117.731 94.5764 116.53 95.0739 115.278 95.0739H4.72235C3.46991 95.0739 2.26876 94.5764 1.38315 93.6908C0.497532 92.8052 0 91.604 0 90.3516H0Z" fill="#B6BABE"/>
<path d="M48 90.3516H72C72 90.9787 71.7509 91.5802 71.3074 92.0237C70.8639 92.4671 70.2624 92.7163 69.6353 92.7163H50.3859C50.0736 92.7191 49.7638 92.66 49.4744 92.5424C49.1851 92.4248 48.9219 92.2511 48.7001 92.0312C48.4782 91.8113 48.3022 91.5497 48.182 91.2614C48.0618 90.9731 48 90.6639 48 90.3516Z" fill="#6C7175"/>
<path d="M52.3284 47.8164H22.5614C21.9493 47.8164 21.4531 48.3126 21.4531 48.9246V75.5999C21.4531 76.212 21.9493 76.7082 22.5614 76.7082H52.3284C52.9405 76.7082 53.4367 76.212 53.4367 75.5999V48.9246C53.4367 48.3126 52.9405 47.8164 52.3284 47.8164Z" fill="#E8E9EB"/>
<path d="M56.5638 72.0001H99.0015C99.0883 71.9991 99.1744 72.0154 99.2549 72.048C99.3353 72.0806 99.4085 72.1288 99.4702 72.1898C99.532 72.2509 99.581 72.3236 99.6144 72.4037C99.6478 72.4838 99.665 72.5697 99.665 72.6565V75.9318C99.6632 76.1066 99.5924 76.2735 99.4682 76.3965C99.344 76.5194 99.1763 76.5883 99.0015 76.5883H56.5638C56.3891 76.5883 56.2214 76.5194 56.0971 76.3965C55.9729 76.2735 55.9022 76.1066 55.9003 75.9318V72.7059C55.8934 72.6151 55.9056 72.5238 55.9359 72.4378C55.9663 72.3519 56.0142 72.2732 56.0766 72.2068C56.139 72.1404 56.2146 72.0878 56.2984 72.0522C56.3823 72.0166 56.4727 71.9988 56.5638 72.0001Z" fill="#E8E9EB"/>
<path d="M98.6038 47.6133H56.9074C56.307 47.6133 55.8203 48.1 55.8203 48.7003V48.7074C55.8203 49.3078 56.307 49.7945 56.9074 49.7945H98.6038C99.2042 49.7945 99.6909 49.3078 99.6909 48.7074V48.7003C99.6909 48.1 99.2042 47.6133 98.6038 47.6133Z" fill="#C3C5C9"/>
<path d="M98.5756 51.3867H56.9074C56.307 51.3867 55.8203 51.8734 55.8203 52.4738V52.4808C55.8203 53.0812 56.307 53.5679 56.9074 53.5679H98.5756C99.176 53.5679 99.6627 53.0812 99.6627 52.4808V52.4738C99.6627 51.8734 99.176 51.3867 98.5756 51.3867Z" fill="#C3C5C9"/>
<path d="M82.8768 55.1641H56.9074C56.307 55.1641 55.8203 55.6508 55.8203 56.2511V56.2582C55.8203 56.8585 56.307 57.3452 56.9074 57.3452H82.8768C83.4771 57.3452 83.9638 56.8585 83.9638 56.2582V56.2511C83.9638 55.6508 83.4771 55.1641 82.8768 55.1641Z" fill="#C3C5C9"/>
<path d="M82.7067 73.4531H72.8455C72.3699 73.4531 71.9844 73.8371 71.9844 74.3108C71.9844 74.7844 72.3699 75.1684 72.8455 75.1684H82.7067C83.1823 75.1684 83.5679 74.7844 83.5679 74.3108C83.5679 73.8371 83.1823 73.4531 82.7067 73.4531Z" fill="white"/>
<path d="M59.9989 41.8025C68.1272 41.8025 74.7165 35.2132 74.7165 27.0848C74.7165 18.9565 68.1272 12.3672 59.9989 12.3672C51.8706 12.3672 45.2812 18.9565 45.2812 27.0848C45.2812 35.2132 51.8706 41.8025 59.9989 41.8025Z" fill="#008060"/>
<path d="M52.8203 27.1914L58.0015 32.3725L67.1779 23.2031" stroke="white" stroke-width="4" stroke-linecap="round" stroke-linejoin="round"/>
<g clip-path="url(#clip1_11059_30874)">
<path d="M32.4688 72.6381V58.8734L33.8876 52.6758L35.8217 58.9299L35.2711 73.1605L32.4688 72.6381Z" fill="#43474A"/>
<path d="M33.8867 51.5312L41.2138 52.223V53.2183L42.7455 59.1618V72.4677L35.2702 73.1595L35.5455 58.9077L33.8867 52.6748V51.5312Z" fill="#6C7175"/>
<path d="M35.4617 68.3231L35.3629 68.3301L32.4688 68.0195V72.636L35.2711 73.1584L35.4617 68.3231Z" fill="#DFA144"/>
<path d="M42.7448 67.8281L35.3613 68.3293L35.2695 73.1575L42.7448 72.4658V67.8281Z" fill="#EFB465"/>
<path d="M39.1376 62.2621C39.6989 62.2621 40.154 61.747 40.154 61.1115C40.154 60.4761 39.6989 59.9609 39.1376 59.9609C38.5762 59.9609 38.1211 60.4761 38.1211 61.1115C38.1211 61.747 38.5762 62.2621 39.1376 62.2621Z" fill="#EFB465"/>
<path d="M36.76 63.4894L41.5035 63.447C41.5446 63.4491 41.5856 63.4416 41.6234 63.4252C41.6612 63.4088 41.6946 63.384 41.7213 63.3526C41.7479 63.3212 41.7669 63.2841 41.7769 63.2442C41.7869 63.2042 41.7875 63.1626 41.7788 63.1223C41.7656 63.0356 41.7223 62.9562 41.6565 62.8981C41.5907 62.8401 41.5065 62.807 41.4188 62.8047L36.64 62.8541C36.5994 62.8548 36.5594 62.864 36.5227 62.8811C36.4859 62.8983 36.4531 62.9229 36.4265 62.9536C36.3999 62.9842 36.38 63.0201 36.3681 63.0589C36.3562 63.0977 36.3527 63.1385 36.3576 63.1788C36.3733 63.2717 36.4234 63.3553 36.498 63.4129C36.5726 63.4705 36.6661 63.4978 36.76 63.4894Z" fill="white"/>
<path d="M36.9492 51.8203V52.9215L38.2127 56.8462L39.688 56.945L38.3186 53.0062V51.9474L36.9492 51.8203Z" fill="#EFB465"/>
</g>
<g clip-path="url(#clip2_11059_30874)">
<path fill-rule="evenodd" clip-rule="evenodd" d="M61.783 60.3298C61.3536 59.8901 60.6464 59.8901 60.217 60.3298L59.7359 60.8225C59.5268 61.0366 59.2391 61.1558 58.9399 61.1522L58.2514 61.144C57.6368 61.1367 57.1367 61.6368 57.144 62.2514L57.1522 62.9399C57.1558 63.2391 57.0366 63.5268 56.8225 63.7359L56.3298 64.217C55.8901 64.6464 55.8901 65.3536 56.3298 65.783L56.8225 66.2641C57.0366 66.4732 57.1558 66.7609 57.1522 67.0601L57.144 67.7486C57.1367 68.3632 57.6368 68.8633 58.2514 68.856L58.9399 68.8478C59.2391 68.8442 59.5268 68.9634 59.7359 69.1775L60.217 69.6702C60.6464 70.1099 61.3536 70.1099 61.783 69.6702L62.2641 69.1775C62.4732 68.9634 62.7609 68.8442 63.0601 68.8478L63.7486 68.856C64.3632 68.8633 64.8633 68.3632 64.856 67.7486L64.8478 67.0601C64.8442 66.7609 64.9634 66.4732 65.1775 66.2641L65.6702 65.783C66.1099 65.3536 66.1099 64.6464 65.6702 64.217L65.1775 63.7359C64.9634 63.5268 64.8442 63.2391 64.8478 62.9399L64.856 62.2514C64.8633 61.6368 64.3632 61.1367 63.7486 61.144L63.0601 61.1522C62.7609 61.1558 62.4732 61.0366 62.2641 60.8225L61.783 60.3298ZM59.5 64.25C59.9142 64.25 60.25 63.9142 60.25 63.5C60.25 63.0858 59.9142 62.75 59.5 62.75C59.0858 62.75 58.75 63.0858 58.75 63.5C58.75 63.9142 59.0858 64.25 59.5 64.25ZM62.5 67.25C62.9142 67.25 63.25 66.9142 63.25 66.5C63.25 66.0858 62.9142 65.75 62.5 65.75C62.0858 65.75 61.75 66.0858 61.75 66.5C61.75 66.9142 62.0858 67.25 62.5 67.25ZM62.8889 63.1111C63.1036 63.3259 63.1036 63.6741 62.8889 63.8889L59.8889 66.8889C59.6741 67.1037 59.3258 67.1037 59.111 66.8889C58.8963 66.6741 58.8963 66.3259 59.111 66.1111L62.111 63.1111C62.3258 62.8963 62.6741 62.8963 62.8889 63.1111Z" fill="#008060"/>
</g>
</g>
<defs>
<clipPath id="clip0_11059_30874">
<rect width="120" height="120" fill="white"/>
</clipPath>
<clipPath id="clip1_11059_30874">
<rect width="10.2776" height="21.6282" fill="white" transform="translate(32.4688 51.5312)"/>
</clipPath>
<clipPath id="clip2_11059_30874">
<rect width="10" height="10" fill="white" transform="translate(56 60)"/>
</clipPath>
</defs>
</svg>
