<svg width="117" height="117" viewBox="0 0 117 117" fill="none" xmlns="http://www.w3.org/2000/svg">
<g clip-path="url(#clip0_11059_29835)">
<path d="M61 112C91.9279 112 117 86.9279 117 56C117 25.0721 91.9279 0 61 0C30.0721 0 5 25.0721 5 56C5 86.9279 30.0721 112 61 112Z" fill="#E8E9EB"/>
<mask id="mask0_11059_29835" style="mask-type:alpha" maskUnits="userSpaceOnUse" x="0" y="0" width="117" height="117">
<path fill-rule="evenodd" clip-rule="evenodd" d="M58.5 111.945C59.3288 111.982 60.1622 112 61 112C91.9279 112 117 86.9279 117 56C117 25.0721 91.9279 0 61 0C60.1622 0 59.3288 0.018396 58.5 0.0548062V0H0V117H58.5V111.945Z" fill="#C4C4C4"/>
</mask>
<g mask="url(#mask0_11059_29835)">
<g filter="url(#filter0_d_11059_29835)">
<path d="M114.246 19.2578H9.27638C7.75597 19.2578 6.52344 20.4903 6.52344 22.0108V95.473C6.52344 96.9934 7.75597 98.2259 9.27638 98.2259H114.246C115.766 98.2259 116.999 96.9934 116.999 95.473V22.0108C116.999 20.4903 115.766 19.2578 114.246 19.2578Z" fill="white"/>
</g>
<path d="M116.999 45.8164H9.73047" stroke="#BCBCBC" stroke-width="0.5" stroke-miterlimit="10"/>
<path d="M116.999 72.1016H9.73047" stroke="#BCBCBC" stroke-width="0.5" stroke-miterlimit="10"/>
</g>
<path d="M34.8457 26.7188H14.116C12.531 26.7188 11.2461 28.0037 11.2461 29.5887C11.2461 31.1737 12.531 32.4586 14.116 32.4586H34.8457C36.4307 32.4586 37.7156 31.1737 37.7156 29.5887C37.7156 28.0037 36.4307 26.7188 34.8457 26.7188Z" fill="#B6BABE"/>
<path d="M40.7094 35.8633H12.7327C11.9117 35.8633 11.2461 36.5288 11.2461 37.3499V37.3568C11.2461 38.1778 11.9117 38.8433 12.7327 38.8433H40.7094C41.5305 38.8433 42.196 38.1778 42.196 37.3568V37.3499C42.196 36.5288 41.5305 35.8633 40.7094 35.8633Z" fill="#D3D5D9"/>
<path d="M28.0459 53.0625H14.116C12.531 53.0625 11.2461 54.3474 11.2461 55.9324C11.2461 57.5175 12.531 58.8024 14.116 58.8024H28.0459C29.6309 58.8024 30.9159 57.5175 30.9159 55.9324C30.9159 54.3474 29.6309 53.0625 28.0459 53.0625Z" fill="#B6BABE"/>
<path d="M38.5484 62.2148H12.7327C11.9117 62.2148 11.2461 62.8804 11.2461 63.7014V63.7083C11.2461 64.5293 11.9117 65.1949 12.7327 65.1949H38.5484C39.3694 65.1949 40.035 64.5293 40.035 63.7083V63.7014C40.035 62.8804 39.3694 62.2148 38.5484 62.2148Z" fill="#D3D5D9"/>
<path d="M78.3062 51.1367H65.6426C64.8368 51.1367 64.1836 51.79 64.1836 52.5958V65.0047C64.1836 65.8105 64.8368 66.4637 65.6426 66.4637H78.3062C79.112 66.4637 79.7652 65.8105 79.7652 65.0047V52.5958C79.7652 51.79 79.112 51.1367 78.3062 51.1367Z" stroke="#BCBCBC" stroke-width="0.5" stroke-miterlimit="10"/>
<path d="M96.9976 51.1367H84.3341C83.5282 51.1367 82.875 51.79 82.875 52.5958V65.0047C82.875 65.8105 83.5282 66.4637 84.3341 66.4637H96.9976C97.8034 66.4637 98.4566 65.8105 98.4566 65.0047V52.5958C98.4566 51.79 97.8034 51.1367 96.9976 51.1367Z" stroke="#BCBCBC" stroke-width="0.5" stroke-miterlimit="10"/>
<path d="M78.3062 24.9219H65.6426C64.8368 24.9219 64.1836 25.5751 64.1836 26.3809V38.7898C64.1836 39.5956 64.8368 40.2489 65.6426 40.2489H78.3062C79.112 40.2489 79.7652 39.5956 79.7652 38.7898V26.3809C79.7652 25.5751 79.112 24.9219 78.3062 24.9219Z" stroke="#BCBCBC" stroke-width="0.5" stroke-miterlimit="10"/>
<path d="M96.8882 24.9219H84.2247C83.4189 24.9219 82.7656 25.5751 82.7656 26.3809V38.7898C82.7656 39.5956 83.4189 40.2489 84.2247 40.2489H96.8882C97.694 40.2489 98.3473 39.5956 98.3473 38.7898V26.3809C98.3473 25.5751 97.694 24.9219 96.8882 24.9219Z" stroke="#BCBCBC" stroke-width="0.5" stroke-miterlimit="10"/>
<path d="M84.294 111.227C84.8642 111.878 85.225 112.686 85.3294 113.546C85.4337 114.405 85.2768 115.276 84.879 116.045C84.0627 116.333 83.1788 116.371 82.341 116.152C81.5032 115.934 80.75 115.47 80.1783 114.82L77.3359 111.564L81.4654 107.965L84.294 111.227Z" fill="#D3D5D9"/>
<path d="M82.7184 104.586L86.6918 109.13C87.4464 109.993 87.8273 111.12 87.7507 112.264C87.6742 113.408 87.1464 114.474 86.2835 115.229C85.4206 115.983 84.2933 116.364 83.1496 116.288C82.0058 116.211 80.9394 115.683 80.1848 114.82L76.2114 110.277C75.6106 109.59 75.3073 108.692 75.3683 107.782C75.4293 106.871 75.8495 106.022 76.5365 105.421L77.8627 104.261C78.5498 103.661 79.4473 103.357 80.3579 103.418C81.2685 103.479 82.1176 103.899 82.7184 104.586Z" fill="#B6BABE"/>
<path d="M51.5732 68.9883L84.0441 106.119L77.6091 111.9L45.0625 74.6869L51.5732 68.9883Z" fill="#3C3C3C"/>
<path d="M51.578 68.9917L49.1797 71.0898L82.0695 108.686L84.4678 106.588L51.578 68.9917Z" fill="black"/>
<path d="M83.6035 105.124L76.625 111.227L77.7259 112.485L84.7044 106.383L83.6035 105.124Z" fill="#43474A"/>
<path d="M83.3196 104.885L80.9297 106.988L82.0335 108.243L84.4234 106.139L83.3196 104.885Z" fill="#43474A"/>
<path d="M45.0639 74.6864L39.7852 62.6836L51.5746 68.9878L51.4645 70.9975L49.4342 70.8667L49.2966 72.897L47.2594 72.7594L47.1286 74.7965L45.0639 74.6864Z" fill="#E1B066"/>
<path d="M41.9118 67.5219L39.7852 62.6836L44.534 65.2232L41.9118 67.5219Z" fill="#43474A"/>
<g clip-path="url(#clip1_11059_29835)">
<path d="M69.5117 64.4082V56.962L70.2718 53.6094L71.3079 56.9926L71.013 64.6908L69.5117 64.4082Z" fill="#43474A"/>
<path d="M70.2734 52.9922L74.1987 53.3664V53.9048L75.0192 57.12V64.318L71.0146 64.6922L71.1621 56.9826L70.2734 53.6108V52.9922Z" fill="#6C7175"/>
<path d="M71.1151 62.0783L71.0621 62.0821L69.5117 61.9141V64.4114L71.013 64.694L71.1151 62.0783Z" fill="#DFA144"/>
<path d="M75.0163 61.8086L71.0609 62.0797L71.0117 64.6916L75.0163 64.3174V61.8086Z" fill="#EFB465"/>
<path d="M73.0836 58.7956C73.3843 58.7956 73.6281 58.517 73.6281 58.1732C73.6281 57.8294 73.3843 57.5508 73.0836 57.5508C72.7829 57.5508 72.5391 57.8294 72.5391 58.1732C72.5391 58.517 72.7829 58.7956 73.0836 58.7956Z" fill="#EFB465"/>
<path d="M71.8105 59.4602L74.3516 59.4373C74.3737 59.4384 74.3956 59.4344 74.4159 59.4255C74.4361 59.4167 74.454 59.4032 74.4683 59.3862C74.4825 59.3693 74.4927 59.3492 74.4981 59.3276C74.5034 59.306 74.5038 59.2834 74.4991 59.2617C74.492 59.2147 74.4688 59.1718 74.4336 59.1404C74.3983 59.109 74.3533 59.0911 74.3063 59.0898L71.7462 59.1166C71.7244 59.1169 71.703 59.1219 71.6833 59.1312C71.6636 59.1405 71.6461 59.1538 71.6318 59.1704C71.6175 59.1869 71.6069 59.2064 71.6005 59.2273C71.5942 59.2483 71.5923 59.2704 71.5949 59.2922C71.6033 59.3425 71.6301 59.3877 71.6701 59.4189C71.71 59.45 71.7602 59.4648 71.8105 59.4602Z" fill="white"/>
<path d="M71.9141 53.1484V53.7441L72.591 55.8672L73.3813 55.9207L72.6477 53.79V53.2172L71.9141 53.1484Z" fill="#EFB465"/>
</g>
<g clip-path="url(#clip2_11059_29835)">
<path d="M88.2031 64.4082V56.962L88.9632 53.6094L89.9993 56.9926L89.7044 64.6908L88.2031 64.4082Z" fill="#43474A"/>
<path d="M88.9648 52.9922L92.8901 53.3664V53.9048L93.7106 57.12V64.318L89.706 64.6922L89.8535 56.9826L88.9648 53.6108V52.9922Z" fill="#6C7175"/>
<path d="M89.8065 62.0783L89.7535 62.0821L88.2031 61.9141V64.4114L89.7044 64.694L89.8065 62.0783Z" fill="#DFA144"/>
<path d="M93.7078 61.8086L89.7523 62.0797L89.7031 64.6916L93.7078 64.3174V61.8086Z" fill="#EFB465"/>
<path d="M90.5019 59.4602L93.043 59.4373C93.0651 59.4384 93.087 59.4344 93.1073 59.4255C93.1275 59.4167 93.1454 59.4032 93.1597 59.3862C93.1739 59.3693 93.1841 59.3492 93.1895 59.3276C93.1948 59.306 93.1952 59.2834 93.1905 59.2617C93.1834 59.2147 93.1602 59.1718 93.125 59.1404C93.0897 59.109 93.0447 59.0911 92.9977 59.0898L90.4376 59.1166C90.4158 59.1169 90.3944 59.1219 90.3747 59.1312C90.355 59.1405 90.3375 59.1538 90.3232 59.1704C90.3089 59.1869 90.2983 59.2064 90.2919 59.2273C90.2856 59.2483 90.2837 59.2704 90.2863 59.2922C90.2947 59.3425 90.3215 59.3877 90.3615 59.4189C90.4015 59.45 90.4516 59.4648 90.5019 59.4602Z" fill="white"/>
</g>
<g clip-path="url(#clip3_11059_29835)">
<path d="M73.7769 35.6517C76.277 35.6517 78.3038 33.7211 78.3038 31.3395C78.3038 28.958 76.277 27.0273 73.7769 27.0273C71.2768 27.0273 69.25 28.958 69.25 31.3395C69.25 33.7211 71.2768 35.6517 73.7769 35.6517Z" fill="#42474C"/>
<path d="M69.0225 37.1004C69.0225 38.1277 71.1502 38.9594 73.7842 38.9594C76.4181 38.9594 78.5459 38.1277 78.5459 37.1004V36.1289H69.0078L69.0225 37.1004Z" fill="#42474C"/>
<path d="M73.785 27.0196C72.7792 27.0164 71.8008 27.332 71.0039 27.9165C70.207 28.501 69.6367 29.3214 69.3828 30.2484C69.633 31.1729 70.1987 31.992 70.9909 32.5768C71.7832 33.1616 72.757 33.479 73.7593 33.479C74.7616 33.479 75.7354 33.1616 76.5277 32.5768C77.3199 31.992 77.8856 31.1729 78.1358 30.2484C77.8853 29.3289 77.323 28.5138 76.5362 27.93C75.7495 27.3461 74.7823 27.026 73.785 27.0196Z" fill="#6B7177"/>
<path d="M73.7759 34.7658C75.4859 34.7658 76.8721 33.4454 76.8721 31.8165C76.8721 30.1876 75.4859 28.8672 73.7759 28.8672C72.0659 28.8672 70.6797 30.1876 70.6797 31.8165C70.6797 33.4454 72.0659 34.7658 73.7759 34.7658Z" fill="white"/>
<path d="M73.7762 37.3517C75.8832 37.3517 77.5914 36.6914 77.5914 35.877C77.5914 35.0626 75.8832 34.4023 73.7762 34.4023C71.6691 34.4023 69.9609 35.0626 69.9609 35.877C69.9609 36.6914 71.6691 37.3517 73.7762 37.3517Z" stroke="#383838" stroke-width="0.05" stroke-miterlimit="10"/>
<path d="M73.7773 37.9876C76.4071 37.9876 78.539 37.1553 78.539 36.1286C78.539 35.1019 76.4071 34.2695 73.7773 34.2695C71.1475 34.2695 69.0156 35.1019 69.0156 36.1286C69.0156 37.1553 71.1475 37.9876 73.7773 37.9876Z" stroke="#383838" stroke-width="0.05" stroke-miterlimit="10"/>
<path d="M73.7773 37.9876C76.4071 37.9876 78.539 37.1553 78.539 36.1286C78.539 35.1019 76.4071 34.2695 73.7773 34.2695C71.1475 34.2695 69.0156 35.1019 69.0156 36.1286C69.0156 37.1553 71.1475 37.9876 73.7773 37.9876Z" fill="#6B7177"/>
<path d="M78.2283 35.4716C77.546 34.7727 75.8145 34.2695 73.7821 34.2695C71.7498 34.2695 70.0183 34.7727 69.3359 35.4716C69.7248 36.8694 71.537 37.9876 73.7821 37.9876C76.0272 37.9876 77.8321 36.9183 78.2283 35.4716Z" fill="#828A91"/>
<path d="M73.7762 37.8549C75.8832 37.8549 77.5914 37.082 77.5914 36.1286C77.5914 35.1752 75.8832 34.4023 73.7762 34.4023C71.6691 34.4023 69.9609 35.1752 69.9609 36.1286C69.9609 37.082 71.6691 37.8549 73.7762 37.8549Z" fill="#E9B99E"/>
<path d="M93.2569 35.9023C93.7058 35.9918 94.1629 36.0386 94.6215 36.0421C95.0808 36.0512 95.5395 36.0043 95.9862 35.9023V38.8447C95.5324 38.9383 95.0709 38.9944 94.6069 39.0124C94.1482 39.0158 93.6906 38.9712 93.2422 38.8796L93.2569 35.9023Z" stroke="#E9B99E" stroke-width="0.05" stroke-miterlimit="10"/>
<path d="M95.6406 35.9652V38.9006L95.9781 38.8447V35.9023C95.8672 35.9305 95.7545 35.9515 95.6406 35.9652Z" fill="#BF8563"/>
<path d="M93.7109 36.449H95.5085L95.4278 27.3564L93.8063 27L93.7109 36.449Z" fill="#CD5747"/>
<path d="M91.0117 38.8234C91.4747 38.8713 91.94 38.897 92.4057 38.9003C93.0441 38.9003 93.7924 38.8234 93.7924 38.8234V30.7722C93.7924 30.7722 93.0587 30.6953 92.4057 30.6953C91.7527 30.6953 91.0117 30.7722 91.0117 30.7722V38.8234Z" fill="#5BA7B1"/>
<path d="M93.4922 36.4473H95.73L95.6346 29.6261L93.6096 29.0391L93.4922 36.4473Z" fill="#E8E9EB"/>
<path d="M93.2495 35.9062C93.6983 35.9963 94.1555 36.0431 94.6142 36.046C95.0735 36.0551 95.5321 36.0082 95.9789 35.9062V38.8486C95.5274 38.9418 95.0684 38.9979 94.6069 39.0163C94.1482 39.0203 93.6905 38.9758 93.2422 38.8835L93.2495 35.9062Z" fill="#E9B99E"/>
<path d="M91.8398 34.8777L92.3975 36.1217L92.9624 34.8777L92.3975 33.6406L91.8398 34.8777Z" fill="#E9B99E"/>
</g>
<g clip-path="url(#clip4_11059_29835)">
<path fill-rule="evenodd" clip-rule="evenodd" d="M39.908 51.029C39.4786 50.5893 38.7714 50.5893 38.342 51.029L37.8609 51.5217C37.6518 51.7358 37.3641 51.855 37.0649 51.8514L36.3764 51.8432C35.7618 51.8359 35.2617 52.336 35.269 52.9506L35.2772 53.6391C35.2808 53.9384 35.1616 54.226 34.9475 54.4351L34.4548 54.9162C34.0151 55.3456 34.0151 56.0528 34.4548 56.4823L34.9475 56.9633C35.1616 57.1724 35.2808 57.4601 35.2772 57.7594L35.269 58.4478C35.2617 59.0624 35.7618 59.5625 36.3764 59.5552L37.0649 59.547C37.3641 59.5435 37.6518 59.6626 37.8609 59.8768L38.342 60.3694C38.7714 60.8092 39.4786 60.8092 39.908 60.3694L40.3891 59.8768C40.5982 59.6626 40.8859 59.5435 41.1851 59.547L41.8736 59.5552C42.4882 59.5625 42.9883 59.0624 42.981 58.4478L42.9728 57.7594C42.9692 57.4601 43.0884 57.1724 43.3025 56.9633L43.7952 56.4823C44.2349 56.0528 44.2349 55.3456 43.7952 54.9162L43.3025 54.4351C43.0884 54.226 42.9692 53.9384 42.9728 53.6391L42.981 52.9506C42.9883 52.336 42.4882 51.8359 41.8736 51.8432L41.1851 51.8514C40.8859 51.855 40.5982 51.7358 40.3891 51.5217L39.908 51.029ZM37.625 54.9492C38.0392 54.9492 38.375 54.6134 38.375 54.1992C38.375 53.785 38.0392 53.4492 37.625 53.4492C37.2108 53.4492 36.875 53.785 36.875 54.1992C36.875 54.6134 37.2108 54.9492 37.625 54.9492ZM40.625 57.9492C41.0392 57.9492 41.375 57.6134 41.375 57.1992C41.375 56.785 41.0392 56.4492 40.625 56.4492C40.2108 56.4492 39.875 56.785 39.875 57.1992C39.875 57.6134 40.2108 57.9492 40.625 57.9492ZM41.0139 53.8103C41.2286 54.0251 41.2286 54.3733 41.0139 54.5881L38.0139 57.5881C37.7991 57.8029 37.4508 57.8029 37.236 57.5881C37.0213 57.3733 37.0213 57.0251 37.236 56.8103L40.236 53.8103C40.4508 53.5955 40.7991 53.5955 41.0139 53.8103Z" fill="black"/>
</g>
<g clip-path="url(#clip5_11059_29835)">
<path fill-rule="evenodd" clip-rule="evenodd" d="M46.7323 24.7048C46.3028 24.2651 45.5956 24.2651 45.1662 24.7048L44.6851 25.1975C44.476 25.4116 44.1884 25.5308 43.8891 25.5272L43.2006 25.519C42.586 25.5117 42.0859 26.0118 42.0932 26.6264L42.1014 27.3149C42.105 27.6141 41.9858 27.9018 41.7717 28.1109L41.279 28.592C40.8393 29.0214 40.8393 29.7286 41.279 30.158L41.7717 30.6391C41.9858 30.8482 42.105 31.1359 42.1014 31.4351L42.0932 32.1236C42.0859 32.7382 42.586 33.2383 43.2006 33.231L43.8891 33.2228C44.1884 33.2192 44.476 33.3384 44.6851 33.5525L45.1662 34.0452C45.5956 34.4849 46.3028 34.4849 46.7323 34.0452L47.2133 33.5525C47.4224 33.3384 47.7101 33.2192 48.0094 33.2228L48.6978 33.231C49.3124 33.2383 49.8125 32.7382 49.8052 32.1236L49.797 31.4351C49.7935 31.1359 49.9126 30.8482 50.1268 30.6391L50.6194 30.158C51.0592 29.7286 51.0592 29.0214 50.6194 28.592L50.1268 28.1109C49.9126 27.9018 49.7935 27.6141 49.797 27.3149L49.8052 26.6264C49.8125 26.0118 49.3124 25.5117 48.6978 25.519L48.0094 25.5272C47.7101 25.5308 47.4224 25.4116 47.2133 25.1975L46.7323 24.7048ZM44.4492 28.625C44.8634 28.625 45.1992 28.2892 45.1992 27.875C45.1992 27.4608 44.8634 27.125 44.4492 27.125C44.035 27.125 43.6992 27.4608 43.6992 27.875C43.6992 28.2892 44.035 28.625 44.4492 28.625ZM47.4492 31.625C47.8634 31.625 48.1992 31.2892 48.1992 30.875C48.1992 30.4608 47.8634 30.125 47.4492 30.125C47.035 30.125 46.6992 30.4608 46.6992 30.875C46.6992 31.2892 47.035 31.625 47.4492 31.625ZM47.8381 27.4861C48.0529 27.7009 48.0529 28.0491 47.8381 28.2639L44.8381 31.2639C44.6233 31.4787 44.275 31.4787 44.0603 31.2639C43.8455 31.0491 43.8455 30.7009 44.0603 30.4861L47.0603 27.4861C47.275 27.2713 47.6233 27.2713 47.8381 27.4861Z" fill="black"/>
</g>
</g>
<defs>
<filter id="filter0_d_11059_29835" x="-1.47656" y="11.2578" width="126.477" height="94.9688" filterUnits="userSpaceOnUse" color-interpolation-filters="sRGB">
<feFlood flood-opacity="0" result="BackgroundImageFix"/>
<feColorMatrix in="SourceAlpha" type="matrix" values="0 0 0 0 0 0 0 0 0 0 0 0 0 0 0 0 0 0 127 0" result="hardAlpha"/>
<feOffset/>
<feGaussianBlur stdDeviation="4"/>
<feComposite in2="hardAlpha" operator="out"/>
<feColorMatrix type="matrix" values="0 0 0 0 0 0 0 0 0 0 0 0 0 0 0 0 0 0 0.25 0"/>
<feBlend mode="normal" in2="BackgroundImageFix" result="effect1_dropShadow_11059_29835"/>
<feBlend mode="normal" in="SourceGraphic" in2="effect1_dropShadow_11059_29835" result="shape"/>
</filter>
<clipPath id="clip0_11059_29835">
<rect width="117" height="117" fill="white"/>
</clipPath>
<clipPath id="clip1_11059_29835">
<rect width="5.50589" height="11.7" fill="white" transform="translate(69.5117 52.9922)"/>
</clipPath>
<clipPath id="clip2_11059_29835">
<rect width="5.50589" height="11.7" fill="white" transform="translate(88.2031 52.9922)"/>
</clipPath>
<clipPath id="clip3_11059_29835">
<rect width="27" height="12" fill="white" transform="translate(69 27)"/>
</clipPath>
<clipPath id="clip4_11059_29835">
<rect width="9.75" height="9.75" fill="white" transform="translate(34.125 50.6992)"/>
</clipPath>
<clipPath id="clip5_11059_29835">
<rect width="9.75" height="9.75" fill="white" transform="translate(40.9492 24.375)"/>
</clipPath>
</defs>
</svg>
